<?xml version="1.0" encoding="UTF-8"?>
<svg id="Horizontal" xmlns="http://www.w3.org/2000/svg" viewBox="0 0 1600 600">
  <defs>
    <style>
      .cls-1, .cls-2 {
        fill: #87ceeb;
      }

      .cls-3 {
        fill: #7f7f7f;
        font-family: Futura-Medium, Futura;
        font-size: 200px;
        font-weight: 500;
      }

      .cls-4 {
        letter-spacing: -.02em;
      }

      .cls-5 {
        letter-spacing: 0em;
      }

      .cls-6 {
        letter-spacing: -.02em;
      }

      .cls-7 {
        letter-spacing: 0em;
      }

      .cls-8 {
        letter-spacing: 0em;
      }

      .cls-9 {
        letter-spacing: -.01em;
      }

      .cls-10 {
        letter-spacing: -.01em;
      }

      .cls-11 {
        letter-spacing: -.01em;
      }

      .cls-12 {
        letter-spacing: -.01em;
      }

      .cls-2 {
        stroke: #fff;
        stroke-linejoin: bevel;
        stroke-width: 15px;
      }

      .cls-13 {
        letter-spacing: -.07em;
      }

      .cls-14 {
        letter-spacing: .03em;
      }

      .cls-15 {
        letter-spacing: 0em;
      }

      .cls-16 {
        letter-spacing: 0em;
      }

      .cls-17 {
        letter-spacing: -.03em;
      }
    </style>
  </defs>
  <text class="cls-3" transform="translate(689.67 261.15)"><tspan class="cls-13" x="0" y="0">T</tspan><tspan class="cls-11" x="82.3" y="0">e</tspan><tspan class="cls-5" x="190.07" y="0">r</tspan><tspan class="cls-9" x="264.33" y="0">n</tspan><tspan class="cls-16" x="371.22" y="0">i</tspan><tspan class="cls-14" x="419.75" y="0">t</tspan><tspan x="479.67" y="0">y</tspan><tspan class="cls-17" x="0" y="240">E</tspan><tspan class="cls-10" x="107.89" y="240">d</tspan><tspan class="cls-4" x="225.01" y="240">u</tspan><tspan class="cls-7" x="330.41" y="240">c</tspan><tspan class="cls-8" x="425.29" y="240">a</tspan><tspan class="cls-15" x="544.35" y="240">t</tspan><tspan class="cls-6" x="597.39" y="240">i</tspan><tspan class="cls-12" x="643.6" y="240">o</tspan><tspan x="760.95" y="240">n</tspan></text>
  <circle class="cls-1" cx="325" cy="300" r="280.71"/>
  <g>
    <path class="cls-2" d="M425,357.73v115.48c0-37.01-20.11-69.33-50-86.61l50-28.87Z"/>
    <path class="cls-2" d="M425,300.01l-50,28.86v-57.74l48.16,27.79,.45,.26c.46,.29,.92,.56,1.39,.83Z"/>
    <path class="cls-2" d="M575,213.4c0,37.01-20.11,69.31-49.99,86.6,35.58-20.6,47.97-66.76,27.51-102.34-20.26-35.23-65.69-47.84-101.21-28.3-.07,.04-.14,.08-.21,.12-.37,.2-.74,.4-1.1,.61-.15,.09-.3,.18-.45,.27-14.7,8.7-24.55,24.72-24.55,43.04v28.87l-49.99-28.87h-.01c0-36.72,19.79-68.82,49.29-86.2l.71-.41c7.35-4.25,15.3-7.6,23.68-9.89,8.38-2.28,17.21-3.5,26.32-3.5,55.23,0,100,44.77,100,100Z"/>
    <path class="cls-2" d="M523.51,300.86l-98.51,56.87-49.99,28.87h-.01c-.31-.19-.62-.37-.94-.54l.94,.54-50,28.87-24.83,14.33-.17,.1c-14.95,8.65-25,24.8-25,43.31,0,27.61,22.39,50,50,50s49.29-21.69,49.98-48.7c-.73,40.62-34.4,73.77-75.11,73.69-41.04-.07-74.84-33.88-74.87-74.99,0-37.01,20.11-69.33,49.99-86.61h.01l.94-.54,49.06-28.33,50-28.86,49.98-28.86s.01,0,.02,0c14.71,8.51,31.78,13.38,50,13.38s34.15-4.55,48.51-12.54Z"/>
    <path class="cls-2" d="M225,357.74l-100-57.74c32.05,18.5,70.09,17.25,99.99,.01v57.72Z"/>
    <path class="cls-2" d="M275,386.59v-57.73s50,28.88,50,28.88l-48.13,27.81-.45,.26c-.48,.25-.94,.52-1.41,.79Z"/>
    <path class="cls-2" d="M275,559.8c-32.05-18.5-49.97-52.07-50-86.58,.05,41.11,33.83,74.92,74.87,74.99,40.64,.07,74.27-32.97,75.11-73.49,0-.08,0-.16,0-.24,.01-.42,.02-.84,.02-1.26,0-.17,0-.35,0-.52-.18-17.08-9.13-33.62-25-42.78l-25-14.43,49.99-28.85h0c31.8,18.35,49.7,51.54,50,85.77v.82c0,8.49-1.07,17.05-3.27,25.45-2.22,8.4-5.57,16.65-10.13,24.54-27.61,47.83-88.77,64.21-136.6,36.6Z"/>
    <path class="cls-2" d="M224.99,471.48v-113.75s0-57.73,0-57.73h0s0,0,0,0c.31-.18,.62-.36,.93-.55l-.94,.54v-57.74s0-28.67,0-28.67v-.2c-.02-17.27-8.98-34.05-25.01-43.31-23.91-13.81-54.5-5.61-68.3,18.3-13.59,23.54-5.86,53.53,17.19,67.63-34.81-20.94-46.69-66.68-26.26-101.89,20.58-35.51,66.76-47.87,102.38-27.34,32.05,18.5,49.99,52.08,50.01,86.6h0s0,1.09,0,1.09v56.65s0,57.73,0,57.73v57.71s-.01,0-.02,.01c-14.72,8.48-27.48,20.83-36.59,36.61-8.8,15.25-13.13,31.85-13.4,48.28Z"/>
    <path class="cls-2" d="M325,184.53l100-57.74c-32.05,18.51-49.98,52.08-50.01,86.6l-49.99-28.86Z"/>
    <path class="cls-2" d="M275.02,213.4l49.98,28.86-50,28.88v-55.6s0-.52,0-.52c.02-.54,.02-1.08,.02-1.62Z"/>
    <path class="cls-2" d="M125.01,126.81c32.05-18.5,70.07-17.24,99.98,0-35.63-20.51-81.79-8.16-102.37,27.34-20.38,35.16-8.58,80.8,26.09,101.79,.07,.04,.14,.08,.21,.12,.36,.22,.72,.44,1.08,.65,.15,.08,.31,.17,.46,.25,14.88,8.38,33.68,8.9,49.54-.26l25-14.43v57.72s0,0,0,0c-31.8,18.36-69.49,17.27-99.28,.41l-.71-.41c-7.35-4.24-14.23-9.45-20.4-15.56-6.16-6.12-11.63-13.15-16.19-21.04-27.61-47.82-11.23-108.97,36.6-136.58Z"/>
    <path class="cls-2" d="M226.49,127.66l98.51,56.88,50,28.86h0s0,.01,0,.01c0,.36,0,.72,.01,1.08v-1.08s50,28.87,50,28.87l24.83,14.34,.17,.1c14.97,8.62,33.98,9.25,50.01,0,23.91-13.81,32.11-44.39,18.3-68.3-13.59-23.54-43.43-31.84-67.17-18.93,35.54-19.68,81.09-7.09,101.37,28.2,20.46,35.58,8.08,81.75-27.51,102.33-32.05,18.5-70.1,17.25-100,.01h0s-.94-.55-.94-.55l-49.06-28.32-49.99-28.87-49.98-28.85s0-.01,0-.02c.01-16.99-4.3-34.21-13.41-49.99-8.8-15.25-21.02-27.3-35.11-35.74Z"/>
  </g>
</svg>